<?xml version="1.0" encoding="UTF-8"?>
<svg width="18px" height="16px" viewBox="0 0 18 16" version="1.1" xmlns="http://www.w3.org/2000/svg" xmlns:xlink="http://www.w3.org/1999/xlink">
    <!-- Generator: Sketch 47.1 (45422) - http://www.bohemiancoding.com/sketch -->
    <title>68747470733a2f2f7261776769742e636f6d2f427269676874737061636555492f69636f6e732f6d61737465722f696d616765732f74696572312f75706c6f61642e7376673f7261773d74727565</title>
    <desc>Created with Sketch.</desc>
    <defs></defs>
    <g id="Page-1" stroke="none" stroke-width="1" fill="none" fill-rule="evenodd">
        <g id="Mobile" transform="translate(-49.000000, -179.000000)" fill-rule="nonzero" fill="#565A5C">
            <g id="Upload" transform="translate(19.000000, 166.000000)">
                <g id="68747470733a2f2f7261776769742e636f6d2f427269676874737061636555492f69636f6e732f6d61737465722f696d616765732f74696572312f75706c6f61642e7376673f7261773d74727565" transform="translate(29.000000, 13.000000)">
                    <path d="M12.92,8.38 C12.769487,8.75577065 12.4047905,9.00154441 12,9 L11,9 L11,14.5 C11,15.0522847 10.5522847,15.5 10,15.5 C9.44771525,15.5 9,15.0522847 9,14.5 L9,9 L8,9 C7.59520951,9.00154441 7.23051295,8.75577065 7.08,8.38 C6.92340327,8.0076029 7.00625544,7.5775607 7.29,7.29 L9.29,5.29 C9.6843361,4.90325967 10.3156639,4.90325967 10.71,5.29 L12.71,7.29 C12.9937446,7.5775607 13.0765967,8.0076029 12.92,8.38 L12.92,8.38 Z" id="Shape"></path>
                    <path d="M15.29,4.51 C14.6250564,2.1384327 12.4630228,0.499218123 10,0.499218123 C7.53697717,0.499218123 5.37494359,2.1384327 4.71,4.51 C2.55982632,4.66227321 0.9170152,6.4909524 0.995200523,8.64509285 C1.07338585,10.7992333 2.84444486,12.5040048 5,12.5 L7,12.5 L7,10.83 C6.19589274,10.5485252 5.5517842,9.93465475 5.232,9.145 C4.76551764,8.02524591 5.01927371,6.73476016 5.875,5.875 L7.875,3.875 L7.893,3.858 L7.913,3.84 C9.079565,2.72059572 10.921435,2.72059572 12.088,3.84 L12.108,3.858 L12.125,3.876 L14.15,5.9 C14.8614388,6.63547719 15.1508154,7.68184775 14.9183631,8.67836057 C14.6859109,9.67487339 13.9634277,10.4852118 13,10.83 L13,12.5 L15,12.5 C17.1555551,12.5040048 18.9266142,10.7992333 19.0047995,8.64509285 C19.0829848,6.4909524 17.4401737,4.66227321 15.29,4.51 Z" id="Shape"></path>
                </g>
            </g>
        </g>
    </g>
</svg>